<svg width="28" height="22" viewBox="0 0 28 22" fill="none" xmlns="http://www.w3.org/2000/svg">
<path d="M1.8875 10.0525C1.84155 9.86827 1.83817 9.676 1.87762 9.49027C1.91708 9.30454 1.99832 9.13024 2.11519 8.9806C2.23206 8.83096 2.38149 8.70991 2.55212 8.62663C2.72276 8.54336 2.91012 8.50005 3.1 8.5H24.9C25.0899 8.50005 25.2772 8.54336 25.4479 8.62663C25.6185 8.70991 25.7679 8.83096 25.8848 8.9806C26.0017 9.13024 26.0829 9.30454 26.1224 9.49027C26.1618 9.676 26.1584 9.86827 26.1125 10.0525L23.8487 19.1063C23.7136 19.6471 23.4015 20.1272 22.9621 20.4704C22.5227 20.8135 21.9812 20.9999 21.4237 21H6.57625C6.01876 20.9999 5.47729 20.8135 5.03791 20.4704C4.59853 20.1272 4.28644 19.6471 4.15125 19.1063L1.8875 10.0538V10.0525Z" stroke="white" stroke-width="2" stroke-linecap="round" stroke-linejoin="round"/>
<path d="M10.25 13.5V16" stroke="white" stroke-width="2" stroke-linecap="round" stroke-linejoin="round"/>
<path d="M17.75 13.5V16" stroke="white" stroke-width="2" stroke-linecap="round" stroke-linejoin="round"/>
<path d="M6.5 8.5L11.5 1" stroke="white" stroke-width="2" stroke-linecap="round" stroke-linejoin="round"/>
<path d="M21.5 8.5L16.5 1" stroke="white" stroke-width="2" stroke-linecap="round" stroke-linejoin="round"/>
</svg>
