<svg width="80" height="80" viewBox="0 0 80 80" fill="none" xmlns="http://www.w3.org/2000/svg">
<circle cx="40" cy="40" r="40" fill="#F2C56D"/>
<path d="M36.77 20.0945C36.7961 19.6708 36.9359 19.2619 37.1747 18.9109C37.4136 18.56 37.7426 18.2798 38.1271 18.1001C38.2128 18.0508 38.3073 18.0189 38.4053 18.0062C38.5033 17.9935 38.6028 18.0003 38.6982 18.026C38.7936 18.0518 38.883 18.0961 38.9612 18.1564C39.0395 18.2167 39.1051 18.2918 39.1543 18.3775C39.2036 18.4631 39.2355 18.5577 39.2482 18.6556C39.2609 18.7536 39.2541 18.8531 39.2284 18.9485C39.2026 19.0439 39.1583 19.1333 39.098 19.2116C39.0377 19.2898 38.9626 19.3554 38.8769 19.4047C38.5095 19.6146 38.2846 19.877 38.2846 20.0945C38.2846 20.3119 38.5095 20.5668 38.8769 20.7768C39.2615 20.9566 39.5905 21.2367 39.8293 21.5877C40.0681 21.9386 40.2079 22.3475 40.234 22.7712C40.2039 23.1939 40.0607 23.6007 39.8193 23.949C39.5778 24.2972 39.2472 24.5741 38.8619 24.7506C38.7499 24.8142 38.6233 24.8477 38.4945 24.8481C38.3624 24.8486 38.2325 24.8142 38.118 24.7484C38.0034 24.6826 37.9083 24.5876 37.8422 24.4732C37.7929 24.3872 37.7612 24.2923 37.7489 24.1939C37.7365 24.0955 37.7438 23.9957 37.7703 23.9002C37.7968 23.8046 37.842 23.7153 37.9033 23.6374C37.9645 23.5594 38.0406 23.4944 38.1271 23.446C38.4945 23.2361 38.7195 22.9812 38.7195 22.7637C38.7195 22.5463 38.4945 22.2839 38.1271 22.0739C37.7447 21.8953 37.4171 21.6175 37.1784 21.2694C36.9398 20.9213 36.7987 20.5156 36.77 20.0945ZM42.6258 22.0814C42.9932 22.2914 43.2182 22.5463 43.2182 22.7712C43.2182 22.9961 42.9932 23.2436 42.6258 23.4535C42.5393 23.5019 42.4632 23.5669 42.402 23.6449C42.3407 23.7228 42.2955 23.8121 42.269 23.9077C42.2425 24.0032 42.2353 24.103 42.2476 24.2014C42.2599 24.2998 42.2917 24.3947 42.3409 24.4807C42.407 24.5951 42.5021 24.6901 42.6167 24.7559C42.7312 24.8217 42.8611 24.8561 42.9932 24.8556C43.122 24.8552 43.2486 24.8217 43.3606 24.7581C43.7441 24.579 44.0724 24.3 44.3112 23.9505C44.5499 23.6009 44.6903 23.1936 44.7177 22.7712C44.6917 22.3475 44.5519 21.9386 44.313 21.5877C44.0742 21.2367 43.7452 20.9566 43.3606 20.7768C42.9932 20.5668 42.7683 20.3119 42.7683 20.0945C42.7683 19.877 42.9932 19.6146 43.3606 19.4047C43.5336 19.3053 43.6601 19.1412 43.7121 18.9485C43.7641 18.7559 43.7375 18.5505 43.6381 18.3775C43.5386 18.2045 43.3745 18.0781 43.1819 18.026C42.9893 17.974 42.7839 18.0006 42.6109 18.1001C42.2291 18.2819 41.9031 18.5629 41.6671 18.9137C41.431 19.2646 41.2934 19.6723 41.2687 20.0945C41.2961 20.5169 41.4366 20.9242 41.6753 21.2737C41.914 21.6233 42.2423 21.9022 42.6258 22.0814ZM33.6284 22.0814C33.9958 22.2914 34.2208 22.5463 34.2208 22.7712C34.2208 22.9961 33.9958 23.2436 33.6284 23.4535C33.5419 23.5019 33.4658 23.5669 33.4045 23.6449C33.3433 23.7228 33.2981 23.8121 33.2716 23.9077C33.2451 24.0032 33.2378 24.103 33.2502 24.2014C33.2625 24.2998 33.2942 24.3947 33.3435 24.4807C33.4096 24.5951 33.5047 24.6901 33.6192 24.7559C33.7338 24.8217 33.8637 24.8561 33.9958 24.8556C34.1246 24.8552 34.2512 24.8217 34.3632 24.7581C34.7467 24.579 35.075 24.3 35.3138 23.9505C35.5525 23.6009 35.6929 23.1936 35.7203 22.7712C35.6942 22.3475 35.5544 21.9386 35.3156 21.5877C35.0768 21.2367 34.7478 20.9566 34.3632 20.7768C33.9958 20.5668 33.7709 20.3119 33.7709 20.0945C33.7709 19.877 33.9958 19.6146 34.3632 19.4047C34.5362 19.3053 34.6626 19.1412 34.7147 18.9485C34.7667 18.7559 34.7401 18.5505 34.6406 18.3775C34.5412 18.2045 34.3771 18.0781 34.1845 18.026C33.9919 17.974 33.7864 18.0006 33.6134 18.1001C33.2317 18.2819 32.9057 18.5629 32.6696 18.9137C32.4336 19.2646 32.296 19.6723 32.2713 20.0945C32.2987 20.5169 32.4391 20.9242 32.6779 21.2737C32.9166 21.6233 33.2449 21.9022 33.6284 22.0814ZM52.9354 55.1169C53.0358 55.7142 53.0032 56.3263 52.8399 56.9095C52.6766 57.4927 52.3866 58.0327 51.9907 58.491C51.5763 58.9657 51.0644 59.3455 50.4899 59.6043C49.9154 59.8631 49.2917 59.9948 48.6616 59.9905H28.32C27.6911 59.9937 27.0689 59.8615 26.4958 59.6027C25.9226 59.3439 25.4119 58.9648 24.9984 58.491C24.6111 58.0423 24.3255 57.5151 24.1612 56.9457C23.9968 56.3762 23.9576 55.7779 24.0462 55.1919L28.4474 36.1399L25.5308 27.2324C25.4941 27.1199 25.4845 27.0003 25.5029 26.8834C25.5213 26.7665 25.5672 26.6556 25.6366 26.5598C25.7061 26.464 25.7973 26.386 25.9027 26.3322C26.0081 26.2784 26.1247 26.2503 26.2431 26.2502H50.746C50.8644 26.2503 50.981 26.2784 51.0864 26.3322C51.1918 26.386 51.283 26.464 51.3524 26.5598C51.4219 26.6556 51.4677 26.7665 51.4861 26.8834C51.5045 27.0003 51.495 27.1199 51.4583 27.2324L48.5416 36.1399L52.9354 55.1169ZM32.7737 37.1746C32.5818 37.1268 32.3789 37.1567 32.2089 37.2578C32.039 37.3589 31.9159 37.523 31.8664 37.7144L28.3799 51.5554C28.1104 52.6044 28.1107 53.7044 28.3807 54.7532C28.6508 55.802 29.1819 56.7654 29.9245 57.5537C29.9944 57.6291 30.0791 57.6893 30.1732 57.7306C30.2674 57.7719 30.369 57.7933 30.4718 57.7937C30.6613 57.793 30.8434 57.7207 30.9817 57.5912C31.0576 57.5221 31.1185 57.4382 31.1606 57.3446C31.2027 57.251 31.2252 57.1497 31.2266 57.0471C31.228 56.9445 31.2083 56.8427 31.1688 56.748C31.1292 56.6533 31.0706 56.5677 30.9967 56.4965C30.4329 55.8922 30.0292 55.1566 29.8223 54.3564C29.6154 53.5563 29.6119 52.7172 29.812 51.9153L33.291 38.0818C33.3397 37.893 33.3129 37.6927 33.2163 37.5233C33.1197 37.3539 32.9609 37.2288 32.7737 37.1746ZM45.52 34.7528L47.5894 29.6167C47.6362 29.524 47.6632 29.4224 47.6687 29.3187C47.6742 29.2149 47.658 29.1111 47.6212 29.0139C47.5845 28.9167 47.5279 28.8282 47.4551 28.754C47.3823 28.6798 47.2949 28.6216 47.1984 28.583C47.1019 28.5444 46.9984 28.5263 46.8946 28.5298C46.7907 28.5333 46.6887 28.5584 46.595 28.6034C46.5014 28.6484 46.4181 28.7125 46.3505 28.7914C46.2829 28.8703 46.2324 28.9624 46.2023 29.0619L44.1254 34.1904C44.0877 34.2824 44.0687 34.381 44.0695 34.4804C44.0702 34.5798 44.0907 34.678 44.1298 34.7694C44.1689 34.8608 44.2257 34.9435 44.2971 35.0128C44.3684 35.082 44.4528 35.1363 44.5453 35.1727C44.6336 35.2076 44.7278 35.2254 44.8227 35.2251C44.9767 35.2299 45.1284 35.1871 45.2572 35.1026C45.386 35.018 45.4856 34.8959 45.5425 34.7528H45.52ZM49.3289 55.1769L47.6194 49.1786C47.5647 48.9867 47.4361 48.8244 47.2617 48.7274C47.0873 48.6304 46.8816 48.6066 46.6897 48.6613C46.4978 48.716 46.3355 48.8446 46.2384 49.019C46.1414 49.1934 46.1176 49.3991 46.1723 49.591L47.8893 55.6268C47.9347 55.789 48.0333 55.9311 48.1693 56.0304C48.3053 56.1297 48.4708 56.1803 48.6391 56.1741C48.7064 56.1814 48.7743 56.1814 48.8416 56.1741C48.9439 56.1475 49.0395 56.0994 49.122 56.0332C49.2045 55.967 49.272 55.884 49.3202 55.7899C49.3683 55.6957 49.396 55.5924 49.4014 55.4867C49.4068 55.3811 49.3897 55.2755 49.3514 55.1769H49.3289ZM59.0761 35.3526C58.9206 34.8001 58.5521 34.3319 58.0517 34.0507C57.5512 33.7696 56.9597 33.6985 56.4069 33.853L49.3889 35.9149L49.3064 36.1849L50.2062 40.0612L57.4341 37.9319C57.9106 37.8259 58.3376 37.5627 58.6463 37.1846C58.955 36.8065 59.1275 36.3355 59.1361 35.8475C59.1413 35.6813 59.1262 35.5151 59.0911 35.3526H59.0761Z" fill="#1D222C"/>
</svg>
