<svg width="87" height="71" viewBox="0 0 87 71" fill="none" xmlns="http://www.w3.org/2000/svg">
<path d="M44.9955 25.3997C42.443 23.2059 42.2804 21.1941 44.3512 18.6896C44.6476 18.3339 44.9502 17.9802 45.2178 17.604C47.1259 14.9277 46.4755 12.2188 43.571 10.7426L42.7929 10.346C42.7996 10.4523 42.8197 10.5574 42.8526 10.6588C43.8366 12.4989 43.6163 14.2122 42.2701 15.7987C42.0521 16.0562 41.854 16.3295 41.6772 16.6165C39.2668 20.5215 41.669 24.7066 44.9955 25.3997Z" fill="#F2C56D"/>
<path d="M39.9605 22.0978C38.4908 20.5276 38.4496 19.1374 39.7547 17.4629C39.942 17.2257 40.1334 16.9906 40.3043 16.7371C41.5229 14.94 41.2059 13.057 39.5097 11.9755L39.0548 11.6831C39.0559 11.7561 39.0649 11.8287 39.0815 11.8998C39.6209 13.194 39.4397 14.3532 38.5896 15.4225C38.4514 15.5989 38.3249 15.7839 38.2108 15.9766C36.6608 18.6017 37.9844 21.5396 39.9605 22.0978Z" fill="#F2C56D"/>
<path d="M46.2326 23.5044C45.8086 22.7909 45.6151 22.061 46.0432 21.2984C46.2497 20.9576 46.4801 20.6317 46.7328 20.3232C47.2433 19.6485 47.3504 18.939 47.0251 18.2316C46.5187 18.9227 46.0227 19.6239 45.5019 20.3027C44.5035 21.6091 44.7197 22.6621 46.2326 23.5044Z" fill="#F2C56D"/>
<path d="M9.07973 43.5609L9.09414 41.862L8.99739 41.8211C8.40567 41.5608 7.76718 41.4217 7.12009 41.4122C6.70779 41.3956 6.29715 41.4731 5.91964 41.6386C5.54214 41.8041 5.20781 42.0532 4.94227 42.3669C4.40296 42.9987 4.1189 43.8717 4.1189 44.9614C4.1189 46.0511 4.36796 46.9364 4.88463 47.5722C5.14551 47.8915 5.47742 48.1463 5.85425 48.3166C6.23108 48.4869 6.64254 48.568 7.05628 48.5536H7.08304C7.74134 48.5467 8.38769 48.3782 8.96446 48.0629L9.04885 48.0179V46.9957L8.82037 47.1081C8.28891 47.3934 7.69724 47.5503 7.09333 47.5661C6.82638 47.5787 6.56026 47.5277 6.31715 47.4175C6.07403 47.3072 5.86096 47.1409 5.69566 46.9323C5.35807 46.505 5.19134 45.8262 5.19752 44.9164C5.19752 44.0455 5.37454 43.3974 5.70389 42.9864C5.86878 42.784 6.08051 42.6242 6.321 42.5206C6.5615 42.417 6.82365 42.3727 7.0851 42.3915C7.42895 42.3882 7.77102 42.4407 8.09785 42.5469V43.5589L9.07973 43.5609Z" fill="#F2C56D"/>
<path d="M14.302 48.6007H14.3247C14.71 48.6097 15.0917 48.5259 15.4373 48.3564C15.7829 48.187 16.082 47.9368 16.309 47.6275C16.7989 46.9876 17.0521 46.088 17.0624 44.9533C17.0624 43.884 16.8565 43.0294 16.3975 42.4161C16.178 42.11 15.8858 41.8625 15.5468 41.6955C15.2078 41.5286 14.8325 41.4475 14.4543 41.4592C14.0636 41.444 13.6749 41.5229 13.3215 41.6892C12.9681 41.8554 12.6604 42.1041 12.4247 42.414C11.9328 43.0417 11.6775 43.9106 11.6693 44.9983C11.661 46.0859 11.8957 46.9814 12.365 47.6152C12.582 47.9244 12.8721 48.176 13.2098 48.3478C13.5476 48.5196 13.9226 48.6065 14.302 48.6007ZM13.2049 43.0253C13.3356 42.8309 13.516 42.6745 13.7276 42.5721C13.9392 42.4697 14.1744 42.425 14.4091 42.4426C14.6404 42.4322 14.8704 42.4836 15.0749 42.5915C15.2795 42.6994 15.4512 42.8598 15.5721 43.056C15.8479 43.4813 15.9838 44.1294 15.9838 44.9799C15.9838 45.8631 15.8232 46.5357 15.5247 46.9814C15.3992 47.177 15.2258 47.3377 15.0207 47.4485C14.8156 47.5593 14.5855 47.6166 14.352 47.615C14.1185 47.6133 13.8893 47.5528 13.6858 47.4392C13.4822 47.3255 13.3111 47.1624 13.1884 46.9651C12.8982 46.5153 12.7541 45.8427 12.7602 44.9676C12.7664 44.0926 12.9126 43.4342 13.2049 43.0253Z" fill="#F2C56D"/>
<path d="M19.6437 47.5969L19.6355 48.5189L22.2703 48.5394L22.2765 47.6173L21.4222 47.6091L21.4366 45.6055L22.4638 45.6137L22.4597 46.3456L23.3839 46.3518L23.4024 44.0885L22.4761 44.0803L22.472 44.6916L21.4449 44.6834L21.4613 42.5572L23.3057 42.5715L23.2995 43.424L24.2608 43.4322L24.2752 41.6555L19.689 41.6208L19.6808 42.5429L20.4136 42.549L20.3745 47.603L19.6437 47.5969Z" fill="#F2C56D"/>
<path d="M26.379 47.6479L26.3707 48.57L29.0035 48.5904L29.0117 47.6683L28.1575 47.6602L28.1719 45.6565L29.199 45.6647L29.1949 46.3967L30.1192 46.4028L30.1377 44.1395L29.2114 44.1313L29.2073 44.7427L28.1801 44.7345L28.1966 42.6082L30.0409 42.6225L30.0347 43.4751L30.996 43.4832L31.0104 41.7066L26.4242 41.6718L26.416 42.5939L27.1488 42.6L27.1097 47.654L26.379 47.6479Z" fill="#F2C56D"/>
<path d="M33.1141 47.699L33.1058 48.6211L37.8135 48.6559L37.8279 46.8812L36.8666 46.8731L36.8584 47.7277L34.8926 47.7113L34.909 45.585L35.8148 45.5932L35.8086 46.3251L36.7328 46.3313L36.7513 44.068L35.825 44.0598L35.8209 44.6691L34.9152 44.663L34.9317 42.6593L36.776 42.6737L36.7699 43.5262L37.7312 43.5344L37.7456 41.7577L33.1594 41.723L33.1532 42.645L33.8839 42.6512L33.8448 47.7052L33.1141 47.699Z" fill="#F2C56D"/>
<path d="M40.2137 47.7522L40.2075 48.6743L44.9152 48.7111L44.9296 46.9344L43.9683 46.9262L43.9601 47.7808L41.9943 47.7665L42.0107 45.6402L42.9164 45.6464L42.9103 46.3783L43.8345 46.3865L43.853 44.1212L42.9267 44.115L42.9226 44.7243L42.0169 44.7161L42.0334 42.7125L43.8777 42.7268L43.8716 43.5794L44.8328 43.5876L44.8452 41.8109L40.261 41.7761L40.2528 42.7002L40.9856 42.7043L40.9465 47.7583L40.2137 47.7522Z" fill="#F2C56D"/>
<path d="M59.0588 43.8166L59.0711 42.2219L58.9847 42.1789C58.4645 41.9182 57.8897 41.783 57.307 41.7843C56.7007 41.749 56.1013 41.9279 55.615 42.2893C55.4061 42.4553 55.2385 42.6669 55.1253 42.9077C55.0122 43.1485 54.9564 43.4119 54.9625 43.6776C54.9531 43.9642 55.0131 44.2488 55.1375 44.5076C55.2497 44.7309 55.4083 44.9281 55.6027 45.0862C55.7912 45.2371 55.9988 45.3629 56.2202 45.4604C56.4384 45.5565 56.6566 45.6464 56.8768 45.7282C57.0971 45.81 57.3029 45.9081 57.4738 45.9919C57.622 46.0599 57.7605 46.1472 57.8855 46.2516C57.9851 46.3385 58.0675 46.4432 58.1284 46.5603C58.1875 46.6884 58.2157 46.8284 58.2107 46.9692C58.2172 47.1066 58.1916 47.2436 58.1359 47.3695C58.0801 47.4954 57.9959 47.6068 57.8896 47.695C57.616 47.8915 57.2816 47.9863 56.9448 47.9628C56.6194 47.9671 56.2951 47.9258 55.9814 47.8402V46.8936H55.0057L54.9934 48.5169L55.0881 48.5598C55.6501 48.8019 56.256 48.9272 56.8686 48.9278H56.9015C57.5142 48.9573 58.1176 48.7697 58.6039 48.3983C58.82 48.2207 58.9927 47.9966 59.109 47.7431C59.2252 47.4895 59.282 47.213 59.2749 46.9345C59.2865 46.6404 59.231 46.3475 59.1123 46.0778C59.0077 45.8582 58.8592 45.6621 58.6759 45.5013C58.4932 45.3435 58.2896 45.2115 58.0707 45.1087C57.8649 45.0044 57.6282 44.9043 57.3976 44.8123L56.7842 44.5506C56.632 44.4923 56.4892 44.4124 56.3602 44.3134C56.2582 44.2352 56.1734 44.1371 56.1111 44.0251C56.0523 43.9064 56.024 43.775 56.0288 43.6428C56.029 43.521 56.0558 43.4008 56.1073 43.2903C56.1589 43.1798 56.2339 43.0818 56.3272 43.0029C56.5832 42.8012 56.9076 42.7053 57.2329 42.735C57.5236 42.7326 57.8125 42.7796 58.0872 42.8741V43.8023L59.0588 43.8166Z" fill="#F2C56D"/>
<path d="M61.6648 47.9137L61.6586 48.8378L64.1699 48.8562L64.176 47.9342L63.4453 47.928L63.4618 45.8018L66.4403 45.8243L66.4239 47.9505L65.6911 47.9444L65.6849 48.8685L68.1962 48.8869L68.2023 47.9648L67.4716 47.9587L67.5107 42.9047L68.2415 42.9108L68.2497 41.9888L65.7384 41.9683L65.7302 42.8924L66.463 42.8986L66.4465 44.9022L63.4679 44.8797L63.4823 42.8761L64.2151 42.8802L64.2213 41.9581L61.71 41.9397L61.7039 42.8618L62.4367 42.8679L62.3976 47.9199L61.6648 47.9137Z" fill="#F2C56D"/>
<path d="M73.4575 49.0484H73.4802C73.8655 49.0575 74.2473 48.9737 74.5928 48.8042C74.9384 48.6347 75.2375 48.3846 75.4645 48.0752C75.9544 47.4353 76.2076 46.5357 76.2179 45.401C76.2179 44.3297 76.0121 43.4771 75.553 42.8638C75.3338 42.5574 75.0416 42.3097 74.7025 42.1428C74.3635 41.9758 73.9881 41.8948 73.6099 41.907C73.2188 41.8897 72.8294 41.9676 72.4757 42.134C72.1219 42.3005 71.8145 42.5503 71.5802 42.8617C71.0883 43.4894 70.833 44.3583 70.8248 45.4439C70.8166 46.5296 71.0512 47.4292 71.5205 48.063C71.7374 48.3723 72.0275 48.6239 72.3652 48.7958C72.703 48.9676 73.0781 49.0544 73.4575 49.0484ZM72.3604 43.4731C72.492 43.2795 72.6726 43.1238 72.8839 43.0216C73.0953 42.9193 73.33 42.874 73.5646 42.8904C73.7959 42.8799 74.0259 42.9313 74.2305 43.0392C74.435 43.1471 74.6067 43.3075 74.7276 43.5037C75.0034 43.929 75.1393 44.575 75.1393 45.4276C75.1393 46.2802 74.9787 46.9835 74.6803 47.4292C74.5579 47.6278 74.385 47.7909 74.1791 47.9021C73.9731 48.0134 73.7413 48.0689 73.5069 48.063C73.2721 48.0673 73.0404 48.0091 72.8359 47.8944C72.6314 47.7797 72.4615 47.6127 72.3439 47.4108C72.0537 46.961 71.9096 46.2904 71.9158 45.4153C71.9219 44.5403 72.066 43.8799 72.3583 43.4731H72.3604Z" fill="#F2C56D"/>
<path d="M78.7971 48.0446V48.9667L81.4299 48.9871V48.063H80.5756L80.59 46.3027H81.0017C81.7757 46.3027 82.385 46.1207 82.8028 45.7445C83.2207 45.3683 83.4389 44.8081 83.4451 44.0905C83.4451 43.4547 83.2639 42.9579 82.8934 42.6123C82.5229 42.2668 81.9568 42.093 81.2034 42.089L78.8383 42.0706V42.9926H79.5711L79.532 48.0446H78.7971ZM81.0491 45.3867H80.5962L80.6147 43.0172H81.1273C81.4665 42.9907 81.8046 43.0794 82.0865 43.2686C82.2738 43.4261 82.3685 43.7307 82.3644 44.1744C82.3603 44.618 82.2491 44.9267 82.035 45.1087C81.75 45.314 81.3998 45.4099 81.0491 45.3786V45.3867Z" fill="#F2C56D"/>
<path d="M76.6008 37.7239L77.0577 37.315C78.8054 35.7837 78.7765 35.0354 76.9075 33.5797C73.1735 30.6683 73.1735 30.6683 75.8412 26.7388C77.0763 24.9172 76.7675 23.7211 74.6844 23.1016C70.693 21.9158 69.6432 22.3615 71.5102 16.7739C71.5473 16.6615 71.6132 16.5572 71.644 16.4447C72.0681 14.942 71.6111 14.1958 70.0096 13.9913C69.0092 13.8687 67.9862 13.9464 66.9755 13.8932C64.8738 13.7848 64.3819 13.2655 64.3427 11.174C64.3427 10.7017 64.3427 10.2274 64.3427 9.75309C64.3263 6.60251 63.8549 6.22632 60.7775 6.92145C56.5824 7.8701 56.5824 7.8701 55.0365 3.8547C54.0444 1.2725 53.5565 1.11098 51.2222 2.60142C47.4429 5.01598 47.443 5.01598 44.5673 1.5301C42.8814 -0.514398 42.1322 -0.524621 40.4875 1.58735C37.5604 5.35128 37.7024 5.20203 33.921 2.63005C31.5188 0.994446 30.8725 1.30725 29.9524 4.08164C28.8985 7.27106 28.4929 8.69199 24.761 7.01346C24.4996 6.89488 24.1743 6.92759 23.8841 6.86012C21.3831 6.2897 20.7964 6.65567 20.8088 9.12747C20.8355 14.0097 20.2633 13.9586 15.8521 13.9443C13.5013 13.9443 12.9579 14.7355 13.5878 16.9232C14.9155 21.466 14.9155 21.466 10.4075 23.0751C8.32434 23.8172 7.92294 24.8926 9.18888 26.6673C12.1057 30.7563 12.1633 30.6847 8.06085 33.639C6.29265 34.9127 6.29266 35.9166 7.95382 37.2782C8.1432 37.4336 8.3408 37.5767 8.54047 37.7178H0V39.0304H87V37.726L76.6008 37.7239ZM14.2526 35.4423C14.3 20.0288 26.9903 7.46938 42.5212 7.4612C58.116 7.4612 70.8927 20.1719 70.8083 35.6753C70.8083 36.365 70.7781 37.0465 70.7177 37.7198H60.1518C63.3279 35.5833 64.8635 32.5125 63.6511 30.6295C62.9718 29.5786 61.5186 29.1166 59.7071 29.3558C59.7812 28.9039 59.8389 28.4541 59.878 28.0146C59.903 27.7434 59.8702 27.47 59.7819 27.2122C59.6936 26.9543 59.5517 26.7178 59.3654 26.518C59.1741 26.3102 58.9414 26.1441 58.682 26.0304C58.4226 25.9167 58.1422 25.8579 57.8587 25.8576H28.4703C28.1869 25.8588 27.9068 25.918 27.6475 26.0316C27.3882 26.1453 27.1554 26.3108 26.9635 26.518C26.7772 26.7178 26.6353 26.9543 26.547 27.2122C26.4587 27.47 26.426 27.7434 26.451 28.0146C26.7492 31.5217 28.014 34.8795 30.1068 37.7198H14.3432C14.2835 36.9715 14.2506 36.211 14.2526 35.4423ZM56.3828 37.4581C57.7 35.6104 58.6759 33.5446 59.2646 31.3573C60.4996 31.0711 61.4836 31.2265 61.8417 31.7785C62.134 32.2324 62.0126 32.9602 61.5103 33.776C60.9546 34.6797 60.0139 35.5813 58.8611 36.3153C58.0953 36.8138 57.2604 37.1988 56.3828 37.4581ZM11.8896 34.8739C12.2848 18.0354 26.0928 4.96691 42.9206 5.12638C59.7483 5.28585 73.8136 19.4502 73.1158 36.9634C73.1055 37.2189 73.0891 37.4724 73.0705 37.7239H71.7655C71.8211 37.0063 71.854 36.2826 71.856 35.5506C71.8952 19.5871 58.7314 6.47984 42.6653 6.43078C26.4263 6.37966 13.2296 19.397 13.2111 35.4831C13.2111 36.2376 13.2419 36.9838 13.2975 37.7321H11.9595C11.8937 36.7814 11.8669 35.8328 11.8896 34.8739Z" fill="#F2C56D"/>
<path d="M0 53.1845H13.8121C12.8323 56.9136 13.1267 56.9484 17.6223 57.069C20.1254 57.1365 20.6523 57.6415 20.7717 60.0887C21.0084 64.9547 21.0084 64.9547 25.6667 63.6012C27.789 62.9878 28.567 63.3354 29.3719 65.3595C29.6786 66.1241 29.8474 66.9419 30.1376 67.7147C30.7552 69.3503 31.6321 69.6979 33.1697 68.8372C34.0919 68.3219 34.905 67.6105 35.8066 67.0666C36.9367 66.3715 38.0091 66.2366 38.9086 67.5062C39.559 68.4159 40.2557 69.2921 40.9959 70.1313C42.0107 71.2885 42.9452 71.2906 43.9662 70.1313C44.6311 69.381 45.2013 68.5468 45.8415 67.7781C47.0765 66.2958 47.8999 66.1895 49.4746 67.2465C50.3083 67.8067 51.1358 68.3731 51.99 68.8965C53.3239 69.7143 54.2173 69.3053 54.7278 67.8742C55.0468 66.9828 55.4832 66.1261 55.7158 65.2163C56.1275 63.6175 57.1423 63.1105 58.6429 63.454C59.5651 63.6584 60.4399 64.0673 61.3498 64.3311C63.2271 64.8872 64.2192 64.1961 64.3119 62.258C64.3572 61.3134 64.3489 60.3647 64.3324 59.4161C64.3057 57.9686 65.0879 57.2489 66.4547 57.0935C67.0434 57.0281 67.6445 57.0833 68.6511 57.0833C71.6173 57.298 72.5065 56.3657 71.1727 53.1701H86.9897V51.8678H0V53.1845ZM64.4292 53.1845C59.1864 59.5674 51.214 63.6421 42.4286 63.5092C38.2484 63.5029 34.1219 62.5733 30.3481 60.7876C26.5743 59.0018 23.2476 56.4048 20.6091 53.1845H64.4292ZM42.3751 65.8461C37.5271 65.8498 32.7485 64.7026 28.4375 62.5001C24.1264 60.2977 20.4077 57.1037 17.5914 53.1845H19.2649C22.0062 56.7289 25.5326 59.5987 29.5707 61.5711C33.6088 63.5435 38.0501 64.5655 42.55 64.558C51.9447 64.648 60.3885 60.146 65.7713 53.1845H67.3316C61.6771 60.8881 52.4779 66.0178 42.3751 65.8461Z" fill="#F2C56D"/>
</svg>
