<svg width="80" height="80" viewBox="0 0 80 80" fill="none" xmlns="http://www.w3.org/2000/svg">
<circle cx="40" cy="40" r="40" fill="#F2C56D"/>
<path d="M57.9809 47.5896C57.9809 49.7059 57.1495 50.1594 51.7076 61.7235C51.632 61.7991 51.632 61.9502 51.632 62.1014V63.5374H43.0156V55.4502C43.0156 55.1478 43.0912 54.9211 43.2424 54.6944C44.9052 51.5199 49.7424 43.5082 52.9924 45.0954C52.9924 45.0954 52.9924 45.0954 52.9924 45.171C53.1436 46.6071 46.7191 55.1478 49.7424 55.1478C50.1959 55.1478 50.5738 54.7699 50.5738 54.3164C50.5738 53.485 52.0855 50.5373 53.2192 48.7234C54.3529 46.9094 54.7308 45.7001 54.5797 44.8687C55.0332 34.0605 53.7483 31.0372 56.4692 29.2232C57.0739 28.8453 57.8297 29.1476 57.9053 29.8279C58.0564 30.8104 57.9809 30.2058 57.9809 47.5896Z" fill="#1D222C"/>
<path d="M21.8529 47.5895C21.8529 49.7058 22.6843 50.1593 28.1262 61.7234C28.2018 61.799 28.2018 61.9501 28.2018 62.1013V63.5373H36.8181V55.4501C36.8181 55.1477 36.7426 54.921 36.5914 54.6943C34.9286 51.5198 30.0914 43.5081 26.8413 45.0953C26.8413 45.0953 26.8413 45.0953 26.8413 45.1709C26.7657 46.5314 33.1902 55.0722 30.1669 55.0722C29.7134 55.0722 29.3355 54.6943 29.3355 54.2408C29.3355 53.4094 27.8239 50.4617 26.6902 48.6477C25.5564 46.8337 25.1785 45.6244 25.3297 44.793C24.8762 33.9848 26.1611 30.9615 23.4401 29.1475C22.8355 28.7696 22.0797 29.072 22.0041 29.7522C21.7773 30.8103 21.8529 30.2057 21.8529 47.5895Z" fill="#1D222C"/>
<path d="M49.5917 34.816C48.7603 38.1416 46.266 40.6358 41.9579 42.2986V38.973L44.0742 37.159C44.9812 36.3276 45.1323 34.8915 44.3009 33.9845C43.8474 33.5311 43.2428 33.2287 42.5625 33.2287C42.4869 33.2287 42.4114 33.2287 42.3358 33.2287L44.0742 31.7171C44.9812 30.8857 45.1323 29.4496 44.3009 28.5426C43.8474 28.0892 43.2428 27.7868 42.5625 27.7868C42.3358 27.7868 42.1846 27.7868 41.9579 27.8624V25.1415C41.9579 22.1182 37.423 22.1182 37.423 25.1415V27.8624C37.1962 27.7868 37.045 27.7868 36.8183 27.7868C34.702 27.7868 33.795 30.3566 35.3067 31.7927L37.045 33.3043C36.9695 33.3043 36.8939 33.3043 36.8183 33.3043C36.1381 33.3043 35.5334 33.6066 35.0799 34.0601C34.2485 35.0427 34.3241 36.4788 35.3067 37.2346L37.423 39.0485V42.3742C33.1904 40.6358 30.6206 38.1416 29.7892 34.8915C27.7485 26.1996 38.7078 15.5425 39.1613 15.0891C39.4637 14.7867 39.9172 14.7867 40.2195 15.0891C40.673 15.5425 51.6324 26.1996 49.5917 34.816Z" fill="#1D222C"/>
<path d="M42.0334 34.8915L40.4462 36.3276V32.8508L43.0159 30.5834C43.3183 30.281 43.3938 29.8275 43.0915 29.5252C42.7892 29.2229 42.3357 29.1473 42.0334 29.4496L40.4462 30.8857C40.2194 26.1996 40.9752 24.3101 39.6903 24.3101C38.4054 24.3101 39.1613 26.1996 38.9345 30.8857L37.3473 29.4496C37.045 29.1473 36.5915 29.2229 36.2891 29.5252C35.9868 29.8275 36.0624 30.281 36.3647 30.5834L38.9345 32.8508V36.3276L37.3473 34.8915C37.045 34.5892 36.5915 34.6648 36.2891 34.9671C35.9868 35.2694 36.0624 35.7229 36.3647 36.0253L38.9345 38.2927V47.287C38.9345 47.7405 39.2368 48.0428 39.6903 48.0428C40.1438 48.0428 40.4462 47.7405 40.4462 47.287V38.3683L43.0159 36.1009C43.3183 35.7985 43.3938 35.345 43.0915 35.0427C42.8648 34.6648 42.3357 34.6648 42.0334 34.8915Z" fill="#1D222C"/>
</svg>
