<svg width="54" height="58" viewBox="0 0 54 58" fill="none" xmlns="http://www.w3.org/2000/svg">
<path d="M44.5 20.25H40.125V18.0625C40.125 17.4823 39.8945 16.9259 39.4843 16.5157C39.0741 16.1055 38.5177 15.875 37.9375 15.875H16.0625V24.625L19.5625 27.25C19.8342 27.4538 20.0547 27.718 20.2066 28.0217C20.3584 28.3255 20.4375 28.6604 20.4375 29V35.5625C20.4375 36.1427 20.207 36.6991 19.7968 37.1093C19.3866 37.5195 18.8302 37.75 18.25 37.75H9.5C8.91984 37.75 8.36344 37.5195 7.9532 37.1093C7.54297 36.6991 7.3125 36.1427 7.3125 35.5625V29C7.3125 28.6604 7.39157 28.3255 7.54344 28.0217C7.69531 27.718 7.91582 27.4538 8.1875 27.25L11.6875 24.625V15.875H2.9375C2.35734 15.875 1.80094 16.1055 1.3907 16.5157C0.980469 16.9259 0.75 17.4823 0.75 18.0625V33.2438C0.755789 37.9181 2.61522 42.3993 5.92047 45.7045C9.22571 49.0098 13.7069 50.8692 18.3813 50.875H22.4937C26.3805 50.8691 30.1563 49.579 33.2341 47.2054C36.3119 44.8318 38.5191 41.5077 39.5125 37.75H44.5C46.8206 37.75 49.0462 36.8281 50.6872 35.1872C52.3281 33.5462 53.25 31.3206 53.25 29C53.25 26.6794 52.3281 24.4538 50.6872 22.8128C49.0462 21.1719 46.8206 20.25 44.5 20.25ZM44.5 33.375H40.125V24.625H44.5C45.6603 24.625 46.7731 25.0859 47.5936 25.9064C48.4141 26.7269 48.875 27.8397 48.875 29C48.875 30.1603 48.4141 31.2731 47.5936 32.0936C46.7731 32.9141 45.6603 33.375 44.5 33.375Z" fill="black"/>
<path d="M29.1875 53.0625H11.6875C11.1073 53.0625 10.5509 53.293 10.1407 53.7032C9.73047 54.1134 9.5 54.6698 9.5 55.25C9.5 55.8302 9.73047 56.3866 10.1407 56.7968C10.5509 57.207 11.1073 57.4375 11.6875 57.4375H29.1875C29.7677 57.4375 30.3241 57.207 30.7343 56.7968C31.1445 56.3866 31.375 55.8302 31.375 55.25C31.375 54.6698 31.1445 54.1134 30.7343 53.7032C30.3241 53.293 29.7677 53.0625 29.1875 53.0625Z" fill="black"/>
<path d="M10.725 13.6875C11.3052 13.6875 11.8616 13.457 12.2718 13.0468C12.6821 12.6366 12.9125 12.0802 12.9125 11.5C12.8782 10.2858 13.149 9.08246 13.7 8C14.4827 6.36239 14.8722 4.56468 14.8375 2.75C14.8375 2.16984 14.6071 1.61344 14.1968 1.2032C13.7866 0.792968 13.2302 0.5625 12.65 0.5625C12.0699 0.5625 11.5135 0.792968 11.1032 1.2032C10.693 1.61344 10.4625 2.16984 10.4625 2.75C10.4968 3.96416 10.2261 5.16754 9.67502 6.25C8.89239 7.88761 8.50289 9.68532 8.53752 11.5C8.53752 12.0802 8.76799 12.6366 9.17823 13.0468C9.58846 13.457 10.1449 13.6875 10.725 13.6875Z" fill="black"/>
<path d="M19.475 13.6875C20.0552 13.6875 20.6116 13.457 21.0218 13.0468C21.4321 12.6366 21.6625 12.0802 21.6625 11.5C21.6282 10.2858 21.899 9.08246 22.45 8C23.2327 6.36239 23.6222 4.56468 23.5875 2.75C23.5875 2.16984 23.3571 1.61344 22.9468 1.2032C22.5366 0.792968 21.9802 0.5625 21.4 0.5625C20.8199 0.5625 20.2635 0.792968 19.8532 1.2032C19.443 1.61344 19.2125 2.16984 19.2125 2.75C19.2468 3.96416 18.9761 5.16754 18.425 6.25C17.6424 7.88761 17.2529 9.68532 17.2875 11.5C17.2875 12.0802 17.518 12.6366 17.9282 13.0468C18.3385 13.457 18.8949 13.6875 19.475 13.6875Z" fill="black"/>
<path d="M28.225 13.6875C28.8052 13.6875 29.3616 13.457 29.7718 13.0468C30.1821 12.6366 30.4125 12.0802 30.4125 11.5C30.3782 10.2858 30.649 9.08246 31.2 8C31.9827 6.36239 32.3722 4.56468 32.3375 2.75C32.3375 2.16984 32.1071 1.61344 31.6968 1.2032C31.2866 0.792968 30.7302 0.5625 30.15 0.5625C29.5699 0.5625 29.0135 0.792968 28.6032 1.2032C28.193 1.61344 27.9625 2.16984 27.9625 2.75C27.9968 3.96416 27.7261 5.16754 27.175 6.25C26.3924 7.88761 26.0029 9.68532 26.0375 11.5C26.0375 12.0802 26.268 12.6366 26.6782 13.0468C27.0885 13.457 27.6449 13.6875 28.225 13.6875Z" fill="black"/>
</svg>
