<svg width="80" height="80" viewBox="0 0 80 80" fill="none" xmlns="http://www.w3.org/2000/svg">
<circle cx="40" cy="40" r="40" fill="#F2C56D"/>
<path d="M46.4935 56.2099C46.4935 56.027 46.5662 55.8516 46.6955 55.7223C46.8248 55.593 47.0002 55.5203 47.1831 55.5203H48.445V54.2584C48.4443 54.1394 48.4744 54.0223 48.5324 53.9183C48.5904 53.8144 48.6743 53.7273 48.776 53.6654L50.3068 52.7483C49.5333 52.4358 48.6827 52.3675 47.8692 52.5524C47.0557 52.7373 46.3182 53.1665 45.7557 53.7826C45.4551 54.0828 45.1954 54.4213 44.9834 54.7894C45.0382 55.1407 45.0658 55.4957 45.0661 55.8513C45.0654 56.6429 44.9133 57.427 44.6179 58.1614C44.7013 58.3589 44.8028 58.5482 44.9213 58.7268L46.5211 57.7683L46.4935 56.2099Z" fill="#1D222C"/>
<path d="M39.0326 56.0512L39.929 55.1617L39.0326 54.2721C38.9427 54.1844 38.8786 54.0738 38.847 53.9523C38.8154 53.8308 38.8176 53.7029 38.8533 53.5826L39.2877 51.8311C38.5105 52.1655 37.8545 52.7302 37.4081 53.449C36.9618 54.1679 36.7466 55.0063 36.7915 55.8512C36.7877 56.6271 36.9747 57.392 37.3362 58.0785H37.3914V58.1268C37.6251 58.5805 37.9567 58.9767 38.3621 59.2868C38.7676 59.5968 39.2368 59.813 39.7359 59.9197L40.1841 58.1199L39.0808 57.0166C38.9478 56.8941 38.8683 56.7243 38.8592 56.5438C38.8502 56.3632 38.9125 56.1863 39.0326 56.0512Z" fill="#1D222C"/>
<path d="M40.7356 51.7693L40.2874 53.5691L41.3907 54.6724C41.4553 54.7365 41.5066 54.8127 41.5416 54.8968C41.5766 54.9808 41.5946 55.0709 41.5946 55.162C41.5946 55.253 41.5766 55.3431 41.5416 55.4271C41.5066 55.5112 41.4553 55.5874 41.3907 55.6515L40.5011 56.5411L41.3907 57.4306C41.4805 57.5183 41.5447 57.6289 41.5763 57.7505C41.6079 57.872 41.6057 57.9998 41.5699 58.1202L41.1355 59.8717C41.9231 59.546 42.5908 58.985 43.0475 58.2654C43.5041 57.5458 43.7275 56.7028 43.6869 55.8515C43.6869 53.7828 42.3905 52.0727 40.7356 51.7693Z" fill="#1D222C"/>
<path d="M35.4879 54.7138C35.2843 54.3759 35.0412 54.0634 34.7639 53.7829C34.1977 53.1591 33.4529 52.7251 32.6311 52.54C31.8092 52.3549 30.9503 52.4277 30.1714 52.7485L31.7022 53.6656C31.8039 53.7275 31.8878 53.8147 31.9458 53.9186C32.0038 54.0225 32.0339 54.1397 32.0332 54.2587V55.5206H33.2951C33.478 55.5206 33.6534 55.5932 33.7827 55.7225C33.912 55.8519 33.9847 56.0273 33.9847 56.2101V57.7686L35.5845 58.7271C35.6912 58.5678 35.7835 58.3993 35.8603 58.2237C35.3991 57.1144 35.2697 55.8951 35.4879 54.7138Z" fill="#1D222C"/>
<path d="M48.1759 23.0624C46.0049 21.0917 43.1779 20 40.2459 20C37.3139 20 34.4869 21.0917 32.3159 23.0624L29.6128 25.5104H50.8652L48.1759 23.0624Z" fill="#1D222C"/>
<path d="M32.6059 58.1614V56.8995H31.344C31.1611 56.8995 30.9857 56.8269 30.8564 56.6976C30.727 56.5682 30.6544 56.3929 30.6544 56.21V54.6516L29.0753 53.7C28.1168 55.0791 28.3857 57.1892 29.8821 58.6441C30.4485 59.2676 31.1937 59.7008 32.0157 59.8847C32.8377 60.0686 33.6965 59.9942 34.4746 59.6716L32.9437 58.7545C32.8408 58.6934 32.7555 58.6067 32.6963 58.5027C32.637 58.3987 32.6059 58.2811 32.6059 58.1614Z" fill="#1D222C"/>
<path d="M53.341 26.8896H27.1375V31.027H53.341V26.8896Z" fill="#1D222C"/>
<path d="M40.2391 35.1643C39.0116 35.1643 37.8117 35.5283 36.7911 36.2102C35.7705 36.8922 34.9751 37.8614 34.5054 38.9954C34.0356 40.1294 33.9127 41.3773 34.1522 42.5811C34.3917 43.785 34.9827 44.8908 35.8507 45.7588C36.7186 46.6267 37.8244 47.2178 39.0283 47.4572C40.2322 47.6967 41.48 47.5738 42.614 47.1041C43.748 46.6344 44.7173 45.8389 45.3992 44.8183C46.0812 43.7977 46.4451 42.5978 46.4451 41.3704C46.4451 39.7244 45.7913 38.1459 44.6274 36.982C43.4636 35.8182 41.885 35.1643 40.2391 35.1643ZM40.2391 46.1974C37.9566 46.1974 36.1017 44.0321 36.1017 41.3704C36.1017 38.7087 37.9566 36.5434 40.2391 36.5434C42.5215 36.5434 44.3765 38.7087 44.3765 41.3704C44.3765 44.0321 42.5215 46.1974 40.2391 46.1974Z" fill="#1D222C"/>
<path d="M55.4096 50.3347C55.2433 50.3366 55.0819 50.2783 54.9552 50.1706C54.8285 50.0629 54.745 49.913 54.72 49.7486L52.0583 32.406H28.42L25.7583 49.7486C25.7333 49.913 25.6498 50.0629 25.5231 50.1706C25.3964 50.2783 25.235 50.3366 25.0687 50.3347C24.52 50.3347 23.9939 50.5527 23.6059 50.9406C23.218 51.3286 23 51.8548 23 52.4034C23 52.9521 23.218 53.4783 23.6059 53.8662C23.9939 54.2542 24.52 54.4721 25.0687 54.4721H27.2546C27.4305 53.6547 27.8346 52.9039 28.42 52.3069C30.3025 50.4244 33.5848 50.645 35.7363 52.7965C35.8397 52.8999 35.9294 53.0171 36.019 53.1206C36.3908 52.3075 36.9836 51.6152 37.7297 51.1227C38.4759 50.6301 39.3454 50.3571 40.2391 50.3347C41.136 50.3629 42.0069 50.643 42.752 51.143C43.4971 51.643 44.0864 52.3426 44.4524 53.1619C44.5558 53.0378 44.6524 52.9137 44.7696 52.7965C46.921 50.645 50.2034 50.4244 52.0859 52.3069C52.6613 52.9072 53.0556 53.6577 53.2237 54.4721H55.4096C55.9583 54.4721 56.4844 54.2542 56.8724 53.8662C57.2603 53.4783 57.4783 52.9521 57.4783 52.4034C57.4783 51.8548 57.2603 51.3286 56.8724 50.9406C56.4844 50.5527 55.9583 50.3347 55.4096 50.3347ZM40.2391 48.9556C38.7389 48.9556 37.2724 48.5107 36.025 47.6772C34.7776 46.8438 33.8054 45.6591 33.2313 44.2731C32.6572 42.8871 32.507 41.3619 32.7997 39.8906C33.0924 38.4192 33.8148 37.0676 34.8756 36.0068C35.9364 34.946 37.288 34.2236 38.7593 33.9309C40.2307 33.6382 41.7559 33.7884 43.1419 34.3625C44.5279 34.9366 45.7126 35.9089 46.546 37.1562C47.3795 38.4036 47.8244 39.8701 47.8244 41.3704C47.8244 43.3821 47.0252 45.3114 45.6027 46.7339C44.1802 48.1564 42.2509 48.9556 40.2391 48.9556Z" fill="#1D222C"/>
<path d="M39.053 39.1432L39.3012 38.1433C38.7221 38.4522 38.2432 38.9199 37.9207 39.4916C37.5982 40.0632 37.4456 40.7151 37.4808 41.3705C37.4456 42.0259 37.5982 42.6777 37.9207 43.2494C38.2432 43.8211 38.7221 44.2888 39.3012 44.5976L39.053 43.5978C38.9699 43.2752 38.972 42.9366 39.059 42.6151C39.146 42.2936 39.315 42.0001 39.5495 41.7635C39.6531 41.6589 39.7112 41.5177 39.7112 41.3705C39.7112 41.2233 39.6531 41.082 39.5495 40.9774C39.315 40.7408 39.146 40.4474 39.059 40.1259C38.972 39.8044 38.9699 39.4657 39.053 39.1432Z" fill="#1D222C"/>
<path d="M49.8239 54.6516V56.21C49.8239 56.3929 49.7512 56.5682 49.6219 56.6976C49.4926 56.8269 49.3172 56.8995 49.1343 56.8995H47.8724V58.1614C47.8724 58.2811 47.8412 58.3987 47.782 58.5027C47.7227 58.6067 47.6374 58.6934 47.5345 58.7545L46.0037 59.6716C46.78 59.9911 47.6359 60.0638 48.4551 59.88C49.2742 59.6962 50.017 59.2647 50.5824 58.6441C52.0443 57.1892 52.3477 55.0791 51.3892 53.7L49.8239 54.6516Z" fill="#1D222C"/>
<path d="M40.7631 37.9917L40.3907 39.4743C40.367 39.5677 40.3678 39.6658 40.3932 39.7588C40.4186 39.8519 40.4676 39.9368 40.5356 40.0052C40.7182 40.1855 40.8632 40.4002 40.9622 40.637C41.0612 40.8737 41.1121 41.1278 41.1121 41.3844C41.1121 41.641 41.0612 41.895 40.9622 42.1318C40.8632 42.3685 40.7182 42.5832 40.5356 42.7635C40.4676 42.832 40.4186 42.9169 40.3932 43.0099C40.3678 43.103 40.367 43.201 40.3907 43.2945L40.7631 44.777C42.0319 44.446 42.9973 43.0462 42.9973 41.3706C42.9973 39.6949 42.0319 38.2951 40.7631 37.9917Z" fill="#1D222C"/>
</svg>
