<svg width="80" height="80" viewBox="0 0 80 80" fill="none" xmlns="http://www.w3.org/2000/svg">
<circle cx="40" cy="40" r="40" fill="#F2C56D"/>
<path d="M59.2626 57.5254H22.4321C21.9714 57.5254 21.5295 57.7084 21.2037 58.0342C20.8779 58.36 20.6948 58.8019 20.6948 59.2627C20.6948 59.7234 20.8779 60.1653 21.2037 60.4911C21.5295 60.8169 21.9714 61 22.4321 61H59.2626C59.7234 61 60.1653 60.8169 60.4911 60.4911C60.8169 60.1653 60.9999 59.7234 60.9999 59.2627C60.9999 58.8019 60.8169 58.36 60.4911 58.0342C60.1653 57.7084 59.7234 57.5254 59.2626 57.5254Z" fill="#1D222C"/>
<path d="M39.2611 28.7935L39.3709 28.8817C39.8327 29.2491 40.2053 29.7162 40.461 30.248C40.7167 30.7798 40.8489 31.3625 40.8476 31.9525V32.5085H42.2375V31.9525C42.2394 31.1538 42.0607 30.365 41.7148 29.6452C41.3688 28.9253 40.8645 28.293 40.2396 27.7956L40.1298 27.7073C39.7025 27.3671 39.3576 26.9346 39.1209 26.4423C38.8842 25.9501 38.7618 25.4106 38.7629 24.8644C38.7629 23.9429 39.129 23.0591 39.7806 22.4075C40.4322 21.7559 41.316 21.3898 42.2375 21.3898C43.159 21.3898 44.0428 21.7559 44.6944 22.4075C45.346 23.0591 45.712 23.9429 45.712 24.8644V24.9547C45.7122 25.1277 45.6778 25.2989 45.6109 25.4583C45.5439 25.6178 45.4459 25.7623 45.3224 25.8833C45.1989 26.0043 45.0524 26.0995 44.8917 26.1632C44.7309 26.2269 44.559 26.2578 44.3861 26.2542H44.2597C43.9077 26.2537 43.5703 26.1136 43.3215 25.8646C43.0727 25.6157 42.9328 25.2782 42.9324 24.9263V24.1695H41.5426V24.9263C41.5433 25.6467 41.8298 26.3375 42.3391 26.847C42.8485 27.3565 43.5392 27.6431 44.2597 27.6441H44.3861C45.1027 27.6468 45.791 27.3652 46.3002 26.861C46.8093 26.3569 47.0976 25.6713 47.1019 24.9547V24.8644C47.1019 23.5743 46.5894 22.337 45.6771 21.4248C44.7649 20.5125 43.5276 20 42.2375 20C40.9473 20 39.7101 20.5125 38.7978 21.4248C37.8856 22.337 37.3731 23.5743 37.3731 24.8644C37.3713 25.6193 37.5402 26.3648 37.8671 27.0452C38.1941 27.7255 38.6706 28.3232 39.2611 28.7935Z" fill="#1D222C"/>
<path d="M55.5538 26.3119L53.2605 27.9512C52.646 28.3907 52.1449 28.9702 51.799 29.6419C51.453 30.3136 51.272 31.058 51.271 31.8135H52.6608C52.6614 31.2795 52.7892 30.7532 53.0335 30.2783C53.2779 29.8034 53.6318 29.3935 54.0659 29.0825L56.3592 27.4432C56.7192 27.1859 57.0128 26.8465 57.2156 26.4532C57.4183 26.0598 57.5245 25.6238 57.5252 25.1813V24.8644C57.5252 24.1272 57.2324 23.4201 56.7111 22.8989C56.1898 22.3776 55.4828 22.0847 54.7456 22.0847C54.0084 22.0847 53.3013 22.3776 52.7801 22.8989C52.2588 23.4201 51.9659 24.1272 51.9659 24.8644V25.5593H53.3557V24.8644C53.3557 24.4958 53.5022 24.1423 53.7628 23.8816C54.0235 23.621 54.377 23.4745 54.7456 23.4745C55.1142 23.4745 55.4677 23.621 55.7283 23.8816C55.989 24.1423 56.1354 24.4958 56.1354 24.8644V25.1813C56.1354 25.4024 56.0826 25.6203 55.9815 25.817C55.8803 26.0136 55.7337 26.1833 55.5538 26.3119Z" fill="#1D222C"/>
<path d="M26.9492 33.8983H32.4605C32.4909 34.1287 32.507 34.3608 32.5085 34.5932H33.8983C33.8983 33.2188 33.4907 31.8752 32.7272 30.7325C31.9636 29.5897 30.8783 28.699 29.6085 28.173C28.3387 27.6471 26.9414 27.5094 25.5934 27.7776C24.2454 28.0457 23.0072 28.7075 22.0354 29.6794C21.0635 30.6513 20.4017 31.8895 20.1335 33.2375C19.8654 34.5855 20.003 35.9827 20.529 37.2525C21.0549 38.5223 21.9456 39.6076 23.0884 40.3712C24.2312 41.1348 25.5747 41.5424 26.9492 41.5424V40.1525C26.7167 40.151 26.4847 40.135 26.2542 40.1046V34.5932C26.2542 34.4089 26.3275 34.2321 26.4578 34.1018C26.5881 33.9715 26.7649 33.8983 26.9492 33.8983ZM30.733 30.5405L31.5043 31.6968L29.4196 33.0866L28.6482 31.9303L30.733 30.5405ZM26.2542 28.339H27.6441V33.2034H26.2542V28.339ZM23.271 29.9324L25.3557 32.0171L24.3731 32.9998L22.2884 30.915L23.271 29.9324ZM23.271 39.254L22.2884 38.2714L24.3731 36.1866L25.3557 37.1692L23.271 39.254ZM25.5593 35.2881H20.6949V33.8983H25.5593V35.2881Z" fill="#1D222C"/>
<path d="M56.5685 33.8983C56.1122 33.8972 55.6616 33.9993 55.2504 34.197C54.8391 34.3948 54.478 34.683 54.194 35.0401L53.9952 35.2882H45.5416L46.4686 34.7823C47.5016 34.2194 48.3638 33.3884 48.9644 32.3768C49.5649 31.3652 49.8817 30.2104 49.8813 29.0339H48.4915C48.4919 29.9607 48.2424 30.8704 47.7692 31.6673C47.2961 32.4642 46.6168 33.1187 45.8029 33.562L44.2602 34.4042C43.817 34.6501 43.404 34.9467 43.0295 35.2882H27.644V42.9322H35.983V44.3221H27.644V45.017C27.6475 47.9648 28.8201 50.7908 30.9045 52.8752C32.9889 54.9596 35.8149 56.1321 38.7627 56.1356H42.9322C45.88 56.1321 48.706 54.9596 50.7904 52.8752C52.8748 50.7908 54.0473 47.9648 54.0508 45.017V44.3221H37.3729V42.9322H54.0508V37.4424L55.2794 35.9073C55.4932 35.6399 55.7848 35.4455 56.1138 35.3511C56.4429 35.2567 56.7932 35.2669 57.1162 35.3803C57.4392 35.4938 57.719 35.7048 57.9168 35.9842C58.1146 36.2636 58.2207 36.5976 58.2203 36.94V37.1644C58.2236 38.9641 57.661 40.7192 56.6123 42.1817C55.3953 43.8793 54.7424 45.9164 54.7457 48.0051V49.1865H56.1356V48.0051C56.1323 46.2055 56.6948 44.4503 57.7436 42.9878C58.9606 41.2902 59.6135 39.2532 59.6101 37.1644V36.9407C59.6096 36.1341 59.289 35.3607 58.7187 34.7903C58.1484 34.2199 57.3751 33.8991 56.5685 33.8983Z" fill="#1D222C"/>
</svg>
